<svg width="48" height="48" viewBox="0 0 48 48" fill="none" xmlns="http://www.w3.org/2000/svg">
<rect y="48" width="48" height="48" rx="24" transform="rotate(-90 0 48)" fill="#C49732"/>
<path d="M10.9401 25.0599C10.6607 24.7779 10.5039 24.397 10.5039 23.9999C10.5039 23.6029 10.6607 23.222 10.9401 22.9399L20.9401 12.9399C21.0774 12.7926 21.243 12.6744 21.427 12.5924C21.611 12.5104 21.8097 12.4663 22.0111 12.4628C22.2125 12.4592 22.4125 12.4963 22.5993 12.5717C22.7861 12.6471 22.9558 12.7594 23.0982 12.9019C23.2406 13.0443 23.3529 13.214 23.4284 13.4007C23.5038 13.5875 23.5409 13.7876 23.5373 13.989C23.5338 14.1904 23.4897 14.389 23.4077 14.573C23.3257 14.757 23.2075 14.9226 23.0601 15.0599L15.6201 22.4999L36.0001 22.4999C36.3979 22.4999 36.7795 22.658 37.0608 22.9393C37.3421 23.2206 37.5001 23.6021 37.5001 23.9999C37.5001 24.3978 37.3421 24.7793 37.0608 25.0606C36.7795 25.3419 36.3979 25.4999 36.0001 25.4999L15.6201 25.4999L23.0601 32.9399C23.3251 33.2243 23.4693 33.6004 23.4625 33.989C23.4556 34.3776 23.2982 34.7484 23.0234 35.0232C22.7485 35.298 22.3778 35.4554 21.9892 35.4623C21.6006 35.4691 21.2245 35.3249 20.9401 35.0599L10.9401 25.0599Z" fill="white"/>
</svg>
