<svg width="49" height="48" viewBox="0 0 49 48" fill="none" xmlns="http://www.w3.org/2000/svg">
<path d="M8.07111 5.31641C6.92202 5.31641 5.97656 6.25459 5.97656 7.41095C5.97656 8.56732 6.91474 9.5055 8.07111 9.5055C9.22747 9.5055 10.1657 8.56732 10.1657 7.41095C10.1657 6.25459 9.2202 5.31641 8.07111 5.31641ZM8.07111 8.2255C7.6202 8.2255 7.24929 7.86186 7.24929 7.40368C7.24929 6.9455 7.61293 6.58186 8.07111 6.58186C8.52929 6.58186 8.89293 6.9455 8.89293 7.40368C8.89293 7.86186 8.52202 8.2255 8.07111 8.2255Z" fill="black"/>
<path d="M13.409 5.31641C12.2599 5.31641 11.3145 6.25459 11.3145 7.41095C11.3145 8.56732 12.2526 9.5055 13.409 9.5055C14.5654 9.5055 15.5035 8.56732 15.5035 7.41095C15.5035 6.25459 14.5654 5.31641 13.409 5.31641ZM13.409 8.2255C12.9581 8.2255 12.5872 7.86186 12.5872 7.40368C12.5872 6.9455 12.9508 6.58186 13.409 6.58186C13.8672 6.58186 14.2308 6.9455 14.2308 7.40368C14.2308 7.86186 13.8599 8.2255 13.409 8.2255Z" fill="black"/>
<path d="M18.7547 5.31641C17.6056 5.31641 16.6602 6.25459 16.6602 7.41095C16.6602 8.56732 17.5983 9.5055 18.7547 9.5055C19.9111 9.5055 20.8492 8.56732 20.8492 7.41095C20.8492 6.25459 19.9038 5.31641 18.7547 5.31641ZM18.7547 8.2255C18.3038 8.2255 17.9329 7.86186 17.9329 7.40368C17.9329 6.9455 18.2965 6.58186 18.7547 6.58186C19.2129 6.58186 19.5765 6.9455 19.5765 7.40368C19.5765 7.86186 19.2056 8.2255 18.7547 8.2255Z" fill="black"/>
<path d="M30.5944 20.8582C28.6308 20.8582 26.7835 21.6218 25.3944 23.0109C24.0053 24.4 23.2417 26.2472 23.2417 28.2109C23.2417 28.56 23.5253 28.8509 23.8817 28.8509C24.2381 28.8509 24.5217 28.5672 24.5217 28.2109C24.5217 26.5891 25.1544 25.0618 26.3035 23.9127C27.4526 22.7636 28.9799 22.1309 30.6017 22.1309C30.9508 22.1309 31.2417 21.8472 31.2417 21.4909C31.2272 21.1418 30.9435 20.8582 30.5944 20.8582Z" fill="black"/>
<path d="M46.7401 39.8835L41.3874 34.5308C41.1401 34.2835 40.7329 34.2835 40.4856 34.5308L40.0565 34.9599L39.0674 33.9708C41.7874 29.978 41.3801 24.4871 37.8456 20.9453C33.8456 16.9453 27.3365 16.9453 23.3365 20.9453C22.791 21.4908 22.3329 22.0799 21.9329 22.7053H8.56559C6.67468 22.7053 5.14014 24.2399 5.14014 26.1308C5.14014 28.0217 6.67468 29.5562 8.56559 29.5562H20.442C20.7256 31.7162 21.6856 33.7962 23.3438 35.4544C25.3438 37.4544 27.9692 38.4508 30.5947 38.4508C32.6165 38.4508 34.631 37.8544 36.362 36.6762L37.351 37.6653L36.922 38.0944C36.6747 38.3417 36.6747 38.749 36.922 38.9962L42.2747 44.349C42.8929 44.9671 43.7001 45.2726 44.5074 45.2726C45.3147 45.2726 46.1292 44.9671 46.7401 44.349C47.3365 43.7526 47.6638 42.9599 47.6638 42.1162C47.6638 41.2726 47.3365 40.4799 46.7401 39.8835ZM8.56559 28.2908C7.38014 28.2908 6.41286 27.3235 6.41286 26.138C6.41286 24.9526 7.38014 23.9853 8.56559 23.9853H21.2565C20.6383 25.3526 20.3329 26.8217 20.3401 28.2908H8.56559ZM24.2383 34.5599C22.5438 32.8653 21.6056 30.6035 21.6056 28.2035C21.6056 25.8035 22.5438 23.549 24.2383 21.8471C25.9329 20.1526 28.1947 19.2144 30.5947 19.2144C32.9947 19.2144 35.2492 20.1526 36.951 21.8471C38.6456 23.5417 39.5838 25.8035 39.5838 28.2035C39.5838 30.6035 38.6456 32.858 36.951 34.5599C35.2565 36.2544 32.9947 37.1926 30.5947 37.1926C28.1947 37.1926 25.9329 36.2544 24.2383 34.5599ZM37.3729 35.8908C37.5329 35.7526 37.6929 35.6144 37.8456 35.4617C37.9983 35.309 38.1365 35.149 38.2747 34.989L39.1547 35.869L38.2456 36.778L37.3729 35.8908ZM45.8456 43.4544C45.111 44.189 43.911 44.189 43.1765 43.4544L38.2674 38.5526L38.6965 38.1235L40.5001 36.3199L40.9292 35.8908L45.831 40.7999C46.5801 41.5199 46.5801 42.7199 45.8456 43.4544Z" fill="black"/>
<path d="M11.5767 25.498H9.52574C9.17665 25.498 8.88574 25.7817 8.88574 26.138C8.88574 26.4944 9.16938 26.778 9.52574 26.778H11.5767C11.9257 26.778 12.2167 26.4944 12.2167 26.138C12.2167 25.7817 11.9257 25.498 11.5767 25.498Z" fill="black"/>
<path d="M16.0854 25.498H14.0272C13.6781 25.498 13.3872 25.7817 13.3872 26.138C13.3872 26.4944 13.6708 26.778 14.0272 26.778H16.0781C16.4272 26.778 16.7181 26.4944 16.7181 26.138C16.7181 25.7817 16.4345 25.498 16.0854 25.498Z" fill="black"/>
<path d="M5.74352 38.6619C5.39442 38.6619 5.10352 38.9455 5.10352 39.3019C5.10352 39.6582 5.38715 39.9419 5.74352 39.9419H12.4344C12.7835 39.9419 13.0744 39.6582 13.0744 39.3019C13.0744 38.9455 12.7908 38.6619 12.4344 38.6619H5.74352Z" fill="black"/>
<path d="M18.289 36.3927C18.289 36.0436 18.0053 35.7527 17.649 35.7527H5.74352C5.39442 35.7527 5.10352 36.0363 5.10352 36.3927C5.10352 36.7491 5.38715 37.0327 5.74352 37.0327H17.649C17.9981 37.0254 18.289 36.7418 18.289 36.3927Z" fill="black"/>
<path d="M17.649 32.8435H5.74352C5.39442 32.8435 5.10352 33.1271 5.10352 33.4835C5.10352 33.8399 5.38715 34.1235 5.74352 34.1235H17.649C17.9981 34.1235 18.289 33.8399 18.289 33.4835C18.289 33.1271 17.9981 32.8435 17.649 32.8435Z" fill="black"/>
<path d="M37.6419 42.2982H5.01643C3.68552 42.2982 2.60915 41.2145 2.60915 39.8909V12.0945H43.9619V34.5236C43.9619 34.8727 44.2455 35.1636 44.6019 35.1636C44.9582 35.1636 45.2419 34.88 45.2419 34.5236V11.4618V6.39997C45.2419 4.37088 43.591 2.71997 41.5619 2.71997H5.01643C2.98733 2.71997 1.33643 4.37088 1.33643 6.39997V11.4618V39.8909C1.33643 41.92 2.98733 43.5709 5.01643 43.5709H37.6419C37.991 43.5709 38.2819 43.2872 38.2819 42.9309C38.2819 42.5745 37.991 42.2982 37.6419 42.2982ZM2.60915 6.39997C2.60915 5.06906 3.69279 3.9927 5.01643 3.9927H41.5546C42.8855 3.9927 43.9619 5.07633 43.9619 6.39997V10.8218H2.60915V6.39997Z" fill="#C49732"/>
</svg>
