<svg width="49" height="48" viewBox="0 0 49 48" fill="none" xmlns="http://www.w3.org/2000/svg">
<g clip-path="url(#clip0_1443_6361)">
<path d="M41.133 18.7417C40.8348 18.7417 40.5875 18.989 40.5875 19.2872V38.5308C40.5875 39.709 39.6348 40.6617 38.4639 40.6617H18.7257C18.4275 40.6617 18.1803 40.909 18.1803 41.2072C18.1803 41.5053 18.4275 41.7526 18.7257 41.7526H25.9403L28.8348 45.9999H15.4966C15.1984 45.9999 14.9512 46.2472 14.9512 46.5453C14.9512 46.8435 15.1984 47.0908 15.4966 47.0908H29.8603C30.0639 47.0908 30.2457 46.9817 30.3403 46.7999C30.4348 46.6181 30.4203 46.4072 30.3112 46.2399L27.2566 41.7526H38.4566C40.2312 41.7526 41.6712 40.3053 41.6712 38.5308V19.2872C41.6784 18.989 41.4384 18.7417 41.133 18.7417Z" fill="#C49732"/>
<path d="M2.16557 33.7745C2.46375 33.7745 2.71103 33.5272 2.71103 33.229V13.629C2.71103 12.4509 3.66375 11.4981 4.84194 11.4981H27.9328C28.231 11.4981 28.4783 11.2509 28.4783 10.9527C28.4783 10.6545 28.231 10.4072 27.9328 10.4072H4.84194C3.06739 10.4072 1.62012 11.8545 1.62012 13.629V33.229C1.62012 33.5272 1.86739 33.7745 2.16557 33.7745Z" fill="#C49732"/>
<path d="M26.8202 13.7891C26.8202 13.4909 26.5729 13.2437 26.2747 13.2437H5.002C4.70382 13.2437 4.45654 13.4909 4.45654 13.7891V30.9018C4.45654 31.2 4.70382 31.4473 5.002 31.4473C5.30018 31.4473 5.54745 31.2 5.54745 30.9018V14.3346H26.2747C26.5802 14.3346 26.8202 14.0873 26.8202 13.7891Z" fill="#151515"/>
<path d="M17.6562 35.6291C17.6562 35.9273 17.9035 36.1746 18.2017 36.1746H38.3035C38.6017 36.1746 38.849 35.9273 38.849 35.6291V28.3055C38.849 28.0073 38.6017 27.76 38.3035 27.76C38.0053 27.76 37.7581 28.0073 37.7581 28.3055V35.0836H18.2017C17.9035 35.0836 17.6562 35.3309 17.6562 35.6291Z" fill="#151515"/>
<path d="M38.8492 22.0147V20.0801C38.8492 19.7819 38.6019 19.5347 38.3038 19.5347C38.0056 19.5347 37.7583 19.7819 37.7583 20.0801V22.0147C37.7583 22.3128 38.0056 22.5601 38.3038 22.5601C38.6019 22.5601 38.8492 22.3128 38.8492 22.0147Z" fill="#151515"/>
<path d="M46.8057 12.8582L43.8966 9.94909C45.0748 8.39273 44.973 6.16727 43.5475 4.74182C42.122 3.31636 39.9039 3.21455 38.3402 4.39273L35.4311 1.48364C34.9511 1.00364 34.2675 0.807273 33.6057 0.96C32.9439 1.11273 32.413 1.58545 32.1875 2.23273L31.6493 3.78182C31.6493 3.78909 31.6493 3.79636 31.642 3.80364C31.642 3.81091 31.6348 3.81091 31.6348 3.81091L28.9366 13.4473L23.9839 18.4073C23.773 18.6182 23.773 18.9673 23.9839 19.1782L29.1184 24.3127C29.2202 24.4145 29.3584 24.4727 29.5039 24.4727C29.6493 24.4727 29.7875 24.4145 29.8893 24.3127L30.7475 23.4545L34.1439 26.8509C34.602 27.3091 35.213 27.5418 35.8166 27.5418C36.4202 27.5418 37.0311 27.3091 37.4893 26.8509C38.413 25.9273 38.413 24.4291 37.4893 23.5055L34.093 20.1091L34.8493 19.3527L44.4857 16.6545C44.493 16.6545 44.493 16.6473 44.493 16.6473H44.5148L46.0639 16.1091C46.7039 15.8836 47.1839 15.3527 47.3366 14.6909C47.482 14.0218 47.2857 13.3382 46.8057 12.8582ZM42.7766 5.51273C43.773 6.50909 43.8893 8.05091 43.1257 9.17818L39.1111 5.16364C40.2311 4.4 41.7802 4.51636 42.7766 5.51273ZM29.5039 23.1491L25.1402 18.7855L29.4239 14.5018L33.7875 18.8655L32.9293 19.7236L29.5039 23.1491ZM36.7111 24.2764C37.2057 24.7709 37.2057 25.5782 36.7111 26.08C36.2166 26.5745 35.4093 26.5745 34.9075 26.08L31.5111 22.6836L33.3148 20.88L36.7111 24.2764ZM34.7184 18.2545L30.0348 13.5709L32.4348 5.00364L43.2857 15.8545L34.7184 18.2545ZM46.2675 14.4436C46.202 14.7418 45.9911 14.9745 45.7002 15.0764L44.4711 15.5055L32.7911 3.81091L33.2202 2.58182C33.322 2.29091 33.5475 2.08727 33.853 2.01455C34.1511 1.94909 34.4493 2.02909 34.6675 2.24727L46.0275 13.6291C46.2457 13.8473 46.333 14.1455 46.2675 14.4436Z" fill="#151515"/>
<path d="M17.2928 39.2583C17.2928 34.9383 13.7801 31.4255 9.46012 31.4255C5.14012 31.4255 1.62012 34.9383 1.62012 39.2583C1.62012 43.5783 5.13284 47.091 9.45285 47.091C13.7728 47.091 17.2928 43.5783 17.2928 39.2583ZM9.46012 46.0001C5.74375 46.0001 2.7183 42.9746 2.7183 39.2583C2.7183 35.5419 5.74375 32.5164 9.46012 32.5164C13.1765 32.5164 16.2019 35.5419 16.2019 39.2583C16.2019 42.9746 13.1765 46.0001 9.46012 46.0001Z" fill="#151515"/>
<path d="M7.9911 35.2654C7.82382 35.1563 7.61292 35.149 7.4311 35.2436C7.25655 35.3381 7.14746 35.5199 7.14746 35.7236V42.7927C7.14746 42.9963 7.25655 43.1781 7.4311 43.2727C7.5111 43.3163 7.59837 43.3381 7.69292 43.3381C7.79473 43.3381 7.90382 43.309 7.9911 43.2509L13.3729 39.7163C13.5256 39.6145 13.6202 39.4472 13.6202 39.2581C13.6202 39.069 13.5256 38.9018 13.3729 38.7999L7.9911 35.2654ZM8.23837 41.7818V36.7345L12.0856 39.2581L8.23837 41.7818Z" fill="#151515"/>
<path d="M21.9331 16.0945H7.85307C7.55489 16.0945 7.30762 16.3418 7.30762 16.6399V26.9745C7.30762 27.2727 7.55489 27.5199 7.85307 27.5199H21.9331C22.2313 27.5199 22.4785 27.2727 22.4785 26.9745V16.6399C22.4785 16.3418 22.2385 16.0945 21.9331 16.0945ZM8.39853 17.1854H21.3876V25.1418L17.8385 19.7236C17.7367 19.5708 17.5622 19.4763 17.3803 19.4763C17.1985 19.4763 17.024 19.5708 16.9222 19.7236L14.5876 23.2872L13.0531 20.9454C12.8494 20.6399 12.3403 20.6399 12.144 20.9454L8.55853 26.4218H8.39125V17.1854H8.39853ZM9.86762 26.429L12.6094 22.2472L13.9476 24.2908L12.544 26.4363H9.86762V26.429ZM15.0531 24.589L17.3876 21.0181L20.9294 26.4218H13.8531L15.0531 24.589Z" fill="#151515"/>
<path d="M25.8091 30.5455H35.4091C35.7073 30.5455 35.9546 30.2982 35.9546 30C35.9546 29.7019 35.7073 29.4546 35.4091 29.4546H25.8091C25.5109 29.4546 25.2637 29.7019 25.2637 30C25.2637 30.2982 25.5109 30.5455 25.8091 30.5455Z" fill="#151515"/>
<path d="M25.8091 33.171H31.7873C32.0855 33.171 32.3328 32.9237 32.3328 32.6255C32.3328 32.3274 32.0855 32.0801 31.7873 32.0801H25.8091C25.5109 32.0801 25.2637 32.3274 25.2637 32.6255C25.2637 32.9237 25.5109 33.171 25.8091 33.171Z" fill="#151515"/>
<path d="M21.6563 38.96C21.9575 38.96 22.2017 38.7158 22.2017 38.4146C22.2017 38.1133 21.9575 37.8691 21.6563 37.8691C21.355 37.8691 21.1108 38.1133 21.1108 38.4146C21.1108 38.7158 21.355 38.96 21.6563 38.96Z" fill="#151515"/>
</g>
<defs>
<clipPath id="clip0_1443_6361">
<rect width="48" height="48" fill="white" transform="translate(0.5)"/>
</clipPath>
</defs>
</svg>
