<svg width="49" height="48" viewBox="0 0 49 48" fill="none" xmlns="http://www.w3.org/2000/svg">
<path d="M12.8072 46.154C12.5624 46.154 12.3275 46.0567 12.1545 45.8836L3.01646 36.7456C2.84339 36.5725 2.74609 36.3377 2.74609 36.0929C2.74609 35.8481 2.84339 35.6134 3.01646 35.4402L33.0414 5.41539C33.2146 5.24231 33.4493 5.14502 33.6941 5.14502C33.9389 5.14502 34.1736 5.24231 34.3468 5.41539L43.4847 14.5534C43.8452 14.9138 43.8452 15.4983 43.4847 15.8588L13.4599 45.8836C13.2868 46.0567 13.052 46.154 12.8072 46.154ZM4.97459 36.0929L12.8072 43.9255L41.5266 15.2062L33.6941 7.37351L4.97459 36.0929Z" fill="#C49732"/>
<path d="M37.6104 21.3509C37.3741 21.3509 37.1379 21.2608 36.9577 21.0805L27.8197 11.9425C27.4592 11.5821 27.4592 10.9976 27.8197 10.637C28.1802 10.2766 28.7645 10.2765 29.1252 10.637L38.2632 19.775C38.6236 20.1355 38.6236 20.72 38.2632 21.0805C38.0828 21.2608 37.8467 21.3509 37.6104 21.3509Z" fill="#C49732"/>
<path d="M12.1544 40.2794C11.9182 40.2794 11.6819 40.1893 11.5017 40.0091L8.23814 36.7455C8.06507 36.5724 7.96777 36.3376 7.96777 36.0928C7.96777 35.848 8.06507 35.6133 8.23814 35.4401L19.3343 24.344C19.6947 23.9836 20.2792 23.9836 20.6398 24.344C21.0002 24.7045 21.0002 25.289 20.6398 25.6495L10.1962 36.0928L12.8071 38.7037C13.1676 39.0641 13.1676 39.6486 12.8071 40.0092C12.6268 40.1894 12.3906 40.2794 12.1544 40.2794Z" fill="black"/>
<path d="M46.1307 46.1538H3.66917C3.15936 46.1538 2.74609 45.7404 2.74609 45.2307C2.74609 44.721 3.15936 44.3076 3.66917 44.3076H46.1307C46.6404 44.3076 47.0538 44.721 47.0538 45.2307C47.0538 45.7404 46.6404 46.1538 46.1307 46.1538Z" fill="black"/>
<path d="M42.285 33.6236C41.9336 33.6236 41.5939 33.5117 41.3025 33.3001L40.5922 32.784L39.8819 33.3001C39.5906 33.5117 39.2509 33.6235 38.8994 33.6236C38.3635 33.6236 37.8536 33.3621 37.5353 32.9241C37.2195 32.4895 37.1349 31.9436 37.3029 31.4264L37.5742 30.5914L36.8639 30.0752C36.2747 29.6472 36.03 28.8942 36.255 28.2016C36.48 27.5089 37.1207 27.0435 37.849 27.0435H38.727L38.9982 26.2085C39.2232 25.5159 39.8639 25.0505 40.5922 25.0505C41.3205 25.0505 41.961 25.5159 42.1861 26.2085L42.4573 27.0435H43.3354C44.0637 27.0435 44.7042 27.5089 44.9293 28.2016C45.1544 28.8942 44.9097 29.6472 44.3205 30.0752L43.6102 30.5914L43.8815 31.4263C44.0495 31.9436 43.9648 32.4893 43.6491 32.9239C43.3308 33.362 42.8209 33.6235 42.285 33.6236ZM38.3729 28.8897L38.7595 29.1706C39.3487 29.5985 39.5934 30.3516 39.3683 31.0443L39.2207 31.4985L39.6071 31.2178C39.8954 31.0084 40.236 30.8978 40.5923 30.8978C40.9485 30.8978 41.2891 31.0084 41.5773 31.2177L41.9639 31.4985L41.8162 31.0444C41.5911 30.3516 41.8358 29.5985 42.4251 29.1705L42.8116 28.8897H42.3338C41.6054 28.8897 40.965 28.4244 40.7399 27.7317L40.5922 27.2774L40.4446 27.7317C40.2195 28.4244 39.579 28.8897 38.8506 28.8897H38.3729Z" fill="black"/>
<path d="M18.3968 10.4193C17.8609 10.4193 17.3511 10.1578 17.0328 9.71985C16.717 9.28527 16.6323 8.73936 16.8004 8.22207L17.0717 7.38705L16.3614 6.87105C15.7722 6.44302 15.5276 5.69007 15.7526 4.99739C15.9777 4.30471 16.6182 3.83939 17.3465 3.83939H18.2244L18.4957 3.00438C18.7209 2.31161 19.3614 1.84619 20.0897 1.84619C20.818 1.84619 21.4585 2.31161 21.6836 3.00419L21.9549 3.83921H22.8328C23.5611 3.83921 24.2016 4.30462 24.4267 4.99721C24.6517 5.68979 24.4071 6.44284 23.8178 6.87087L23.1076 7.38687L23.3789 8.22188C23.5469 8.73908 23.4622 9.2849 23.1465 9.71948C22.8283 10.1576 22.3184 10.4191 21.7825 10.4191C21.431 10.4191 21.0913 10.3072 20.8 10.0955L20.0897 9.57954L19.3794 10.0956C19.0881 10.3072 18.7485 10.4191 18.397 10.4191C18.3969 10.4193 18.3969 10.4193 18.3968 10.4193ZM17.8705 5.68536L18.257 5.96616C18.8462 6.39419 19.0908 7.14714 18.8658 7.83982L18.7182 8.29416L19.1047 8.01336C19.3929 7.80401 19.7336 7.69333 20.0898 7.69333C20.446 7.69333 20.7866 7.80401 21.0748 8.01336L21.4613 8.29416L21.3137 7.83982C21.0886 7.14724 21.3333 6.39419 21.9225 5.96616L22.3089 5.68536H21.8313C21.1029 5.68536 20.4624 5.21994 20.2374 4.52727L20.0898 4.07302L19.9422 4.52727C19.7171 5.21994 19.0766 5.68536 18.3482 5.68536H17.8705Z" fill="black"/>
<path d="M42.4382 9.23084C40.9112 9.23084 39.6689 7.98857 39.6689 6.46161C39.6689 4.93466 40.9112 3.69238 42.4382 3.69238C43.9651 3.69238 45.2074 4.93466 45.2074 6.46161C45.2074 7.98857 43.9651 9.23084 42.4382 9.23084ZM42.4382 5.53854C41.9292 5.53854 41.5151 5.95263 41.5151 6.46161C41.5151 6.9706 41.9292 7.38469 42.4382 7.38469C42.9472 7.38469 43.3613 6.9706 43.3613 6.46161C43.3613 5.95263 42.9472 5.53854 42.4382 5.53854Z" fill="black"/>
<path d="M11.9768 18.4616C10.4498 18.4616 9.20752 17.2193 9.20752 15.6923C9.20752 14.1654 10.4498 12.9231 11.9768 12.9231C13.5037 12.9231 14.746 14.1654 14.746 15.6923C14.746 17.2193 13.5037 18.4616 11.9768 18.4616ZM11.9768 14.7692C11.4678 14.7692 11.0537 15.1833 11.0537 15.6923C11.0537 16.2013 11.4678 16.6154 11.9768 16.6154C12.4857 16.6154 12.8998 16.2013 12.8998 15.6923C12.8998 15.1833 12.4857 14.7692 11.9768 14.7692Z" fill="black"/>
<path d="M33.2077 42.4616C31.6808 42.4616 30.4385 41.2193 30.4385 39.6923C30.4385 38.1654 31.6808 36.9231 33.2077 36.9231C34.7347 36.9231 35.9769 38.1654 35.9769 39.6923C35.9769 41.2193 34.7347 42.4616 33.2077 42.4616ZM33.2077 38.7692C32.6987 38.7692 32.2846 39.1833 32.2846 39.6923C32.2846 40.2013 32.6987 40.6154 33.2077 40.6154C33.7167 40.6154 34.1308 40.2013 34.1308 39.6923C34.1308 39.1833 33.7167 38.7692 33.2077 38.7692Z" fill="black"/>
</svg>
