<svg width="49" height="48" viewBox="0 0 49 48" fill="none" xmlns="http://www.w3.org/2000/svg">
<path d="M15.6785 32.2886C15.2402 32.0423 14.7675 31.8628 14.2762 31.7561C14.9036 31.1122 15.3273 30.2977 15.4941 29.4143C15.661 28.5309 15.5636 27.6179 15.2142 26.7896C14.8649 25.9612 14.279 25.2543 13.5299 24.7573C12.7808 24.2602 11.9017 23.9951 11.0027 23.9951C10.1037 23.9951 9.22468 24.2602 8.47558 24.7573C7.72648 25.2543 7.14059 25.9612 6.79121 26.7896C6.44183 27.6179 6.34447 28.5309 6.51133 29.4143C6.67818 30.2977 7.10184 31.1122 7.72928 31.7561C6.58891 32.0042 5.5677 32.6349 4.83516 33.5434C4.10263 34.4519 3.70283 35.5836 3.70215 36.7507V41.1153C3.70294 41.2316 3.73039 41.3461 3.7824 41.4501C3.83441 41.5541 3.90959 41.6448 4.00215 41.7152C4.09965 41.7902 6.43943 43.5001 10.999 43.5001C12.0794 43.5056 13.1574 43.4 14.2162 43.1851C14.4111 43.1453 14.5823 43.0297 14.6919 42.8637C14.8016 42.6978 14.8409 42.4951 14.8011 42.3001C14.7614 42.1052 14.6458 41.9341 14.4798 41.8244C14.3139 41.7147 14.1111 41.6754 13.9162 41.7152C12.956 41.9087 11.9785 42.0042 10.999 42.0002C8.98799 42.0652 6.99342 41.6188 5.20201 40.7028V36.7507C5.20251 35.7922 5.5835 34.873 6.26128 34.1953C6.93905 33.5175 7.85817 33.1365 8.81668 33.136H13.1813C13.7982 33.1354 14.4049 33.2929 14.9436 33.5934C15.0293 33.6419 15.1237 33.6731 15.2215 33.685C15.3192 33.697 15.4183 33.6896 15.5132 33.6632C15.6081 33.6368 15.6968 33.5919 15.7743 33.5312C15.8518 33.4704 15.9166 33.395 15.9649 33.3092C16.0132 33.2234 16.0441 33.129 16.0559 33.0312C16.0676 32.9334 16.06 32.8343 16.0334 32.7395C16.0068 32.6447 15.9618 32.5561 15.9009 32.4787C15.84 32.4013 15.7644 32.3367 15.6785 32.2886ZM10.999 31.6361C10.3923 31.6361 9.79932 31.4562 9.29492 31.1192C8.79052 30.7822 8.39739 30.3031 8.16524 29.7426C7.9331 29.1822 7.87236 28.5655 7.99071 27.9705C8.10907 27.3755 8.4012 26.829 8.83016 26.4C9.25912 25.9711 9.80565 25.6789 10.4006 25.5606C10.9956 25.4423 11.6123 25.503 12.1728 25.7352C12.7333 25.9673 13.2123 26.3605 13.5493 26.8649C13.8863 27.3693 14.0662 27.9623 14.0662 28.5689C14.0664 28.9718 13.9871 29.3707 13.833 29.7429C13.6789 30.1151 13.453 30.4533 13.1682 30.7381C12.8833 31.0229 12.5451 31.2489 12.1729 31.4029C11.8007 31.557 11.4018 31.6363 10.999 31.6361Z" fill="black"/>
<path d="M41.6713 31.7562C42.2962 31.1129 42.7177 30.2996 42.883 29.4181C43.0484 28.5366 42.9503 27.6259 42.601 26.7998C42.2518 25.9737 41.6669 25.2688 40.9193 24.7733C40.1718 24.2777 39.2948 24.0134 38.3979 24.0134C37.501 24.0134 36.624 24.2777 35.8764 24.7733C35.1289 25.2688 34.544 25.9737 34.1947 26.7998C33.8455 27.6259 33.7474 28.5366 33.9127 29.4181C34.0781 30.2996 34.4995 31.1129 35.1244 31.7562C34.6331 31.863 34.1604 32.0425 33.7221 32.2887C33.6362 32.3369 33.5606 32.4015 33.4997 32.4789C33.4388 32.5562 33.3938 32.6449 33.3672 32.7397C33.3406 32.8345 33.333 32.9336 33.3447 33.0313C33.3565 33.1291 33.3874 33.2236 33.4357 33.3094C33.484 33.3952 33.5488 33.4706 33.6263 33.5313C33.7038 33.5921 33.7925 33.6369 33.8874 33.6633C33.9823 33.6897 34.0814 33.6971 34.1791 33.6852C34.2769 33.6732 34.3713 33.6421 34.457 33.5936C34.9957 33.2931 35.6024 33.1356 36.2193 33.1361H40.5839C41.5424 33.1367 42.4615 33.5177 43.1393 34.1954C43.8171 34.8732 44.1981 35.7923 44.1986 36.7508V40.7029C42.4067 41.6178 40.4125 42.0642 38.4016 42.0003C37.422 42.0043 36.4446 41.9088 35.4844 41.7153C35.3878 41.6956 35.2884 41.6951 35.1917 41.7139C35.095 41.7326 35.0029 41.7702 34.9208 41.8245C34.8386 41.8788 34.7679 41.9488 34.7128 42.0304C34.6576 42.1121 34.6191 42.2037 34.5994 42.3002C34.5797 42.3968 34.5792 42.4962 34.598 42.5929C34.6167 42.6896 34.6543 42.7817 34.7086 42.8638C34.7629 42.946 34.8329 43.0167 34.9145 43.0718C34.9962 43.127 35.0878 43.1655 35.1843 43.1852C36.2431 43.4001 37.3212 43.5057 38.4016 43.5002C42.9611 43.5002 45.3009 41.7903 45.3984 41.7153C45.491 41.6449 45.5662 41.5542 45.6182 41.4502C45.6702 41.3462 45.6976 41.2317 45.6984 41.1154V36.7508C45.6977 35.5838 45.2979 34.4521 44.5654 33.5435C43.8329 32.635 42.8117 32.0044 41.6713 31.7562ZM38.4016 31.6362C37.795 31.6362 37.202 31.4563 36.6976 31.1193C36.1932 30.7823 35.8 30.3032 35.5679 29.7428C35.3357 29.1823 35.275 28.5656 35.3933 27.9706C35.5117 27.3756 35.8038 26.8291 36.2328 26.4001C36.6617 25.9712 37.2083 25.6791 37.8032 25.5607C38.3982 25.4424 39.0149 25.5031 39.5754 25.7353C40.1359 25.9674 40.6149 26.3606 40.9519 26.865C41.289 27.3694 41.4688 27.9624 41.4688 28.5691C41.4678 29.3822 41.1444 30.1618 40.5694 30.7368C39.9944 31.3118 39.2148 31.6352 38.4016 31.6362Z" fill="black"/>
<path d="M28.2481 31.5028C29.0126 30.7905 29.545 29.8645 29.7759 28.8454C30.0068 27.8263 29.9256 26.7613 29.5428 25.789C29.16 24.8167 28.4934 23.9821 27.6297 23.3939C26.7661 22.8058 25.7453 22.4912 24.7004 22.4912C23.6555 22.4912 22.6348 22.8058 21.7711 23.3939C20.9074 23.9821 20.2408 24.8167 19.858 25.789C19.4752 26.7613 19.394 27.8263 19.6249 28.8454C19.8559 29.8645 20.3882 30.7905 21.1527 31.5028C19.7995 31.7397 18.5729 32.4456 17.6882 33.4966C16.8036 34.5477 16.3174 35.8767 16.3149 37.2505V42.3412C16.3149 42.4576 16.3421 42.5724 16.3942 42.6765C16.4463 42.7807 16.522 42.8712 16.6152 42.9409C16.7273 43.0252 19.4209 45 24.7004 45C29.98 45 32.6736 43.0252 32.7856 42.9409C32.8788 42.8712 32.9545 42.7807 33.0066 42.6765C33.0588 42.5724 33.0859 42.4576 33.0859 42.3412V37.2505C33.0834 35.8767 32.5972 34.5477 31.7126 33.4966C30.8279 32.4456 29.6014 31.7397 28.2481 31.5028ZM20.9962 27.7061C20.9962 26.9735 21.2134 26.2573 21.6204 25.6482C22.0275 25.039 22.606 24.5642 23.2829 24.2838C23.9597 24.0035 24.7045 23.9301 25.4231 24.0731C26.1416 24.216 26.8017 24.5688 27.3197 25.0868C27.8378 25.6049 28.1906 26.2649 28.3335 26.9835C28.4764 27.702 28.4031 28.4468 28.1227 29.1237C27.8423 29.8005 27.3675 30.3791 26.7584 30.7861C26.1492 31.1931 25.433 31.4104 24.7004 31.4104C23.7183 31.4093 22.7768 31.0186 22.0823 30.3242C21.3879 29.6298 20.9973 28.6882 20.9962 27.7061ZM31.586 41.9296C29.4651 43.0393 27.0928 43.5804 24.7004 43.5001C22.3081 43.5806 19.9357 43.0396 17.8148 41.9299V37.2505C17.8162 36.0998 18.2739 34.9965 19.0877 34.1829C19.9014 33.3692 21.0047 32.9115 22.1555 32.9102H27.2454C28.3961 32.9115 29.4994 33.3692 30.3132 34.1829C31.1269 34.9965 31.5847 36.0998 31.586 37.2505V41.9296Z" fill="black"/>
<path d="M41.0877 21.105L39.8952 19.1775C40.1777 19.0155 40.4125 18.7818 40.5758 18.5C40.7391 18.2182 40.8251 17.8983 40.8252 17.5725C40.8238 17.2081 40.7168 16.852 40.5171 16.5471C40.3175 16.2423 40.0337 16.0019 39.7002 15.855V10.0575C39.6955 9.81131 39.6221 9.57128 39.4883 9.36455C39.3544 9.15781 39.1654 8.9926 38.9427 8.88754L25.3002 3.15004C25.1242 3.05612 24.9286 3.00513 24.7291 3.00122C24.5297 2.99731 24.3322 3.04059 24.1527 3.12754L10.4577 8.88754C10.4352 8.89504 10.4202 8.90254 10.3977 8.91004C10.1871 9.02063 10.0108 9.18671 9.88791 9.39029C9.76496 9.59388 9.70005 9.82722 9.7002 10.065C9.70413 10.3124 9.77715 10.5538 9.91101 10.7618C10.0449 10.9699 10.2342 11.1364 10.4577 11.2425L13.9227 12.6975V21.855C13.9235 22.0265 13.9816 22.1928 14.0877 22.3275C15.1285 23.4538 16.4176 24.3218 17.8527 24.8625C17.9446 24.9039 18.0445 24.9244 18.1452 24.9225C18.3181 24.9224 18.4856 24.8626 18.6194 24.7532C18.7532 24.6437 18.8451 24.4914 18.8795 24.322C18.914 24.1526 18.8888 23.9765 18.8083 23.8235C18.7277 23.6705 18.5968 23.5501 18.4377 23.4825C17.3184 23.0428 16.2946 22.3908 15.4227 21.5625V13.3275L24.1002 16.9725C24.2895 17.073 24.5009 17.1246 24.7152 17.1225C24.8998 17.1264 25.0826 17.0853 25.2477 17.0025L33.9777 13.3275V21.5625C33.1064 22.3916 32.0825 23.0436 30.9627 23.4825C30.8036 23.5501 30.6727 23.6705 30.5921 23.8235C30.5116 23.9765 30.4864 24.1526 30.5208 24.322C30.5553 24.4914 30.6472 24.6437 30.781 24.7532C30.9148 24.8626 31.0823 24.9224 31.2552 24.9225C31.3559 24.9244 31.4558 24.9039 31.5477 24.8625C32.9827 24.3218 34.2719 23.4538 35.3127 22.3275C35.4188 22.1928 35.4769 22.0265 35.4777 21.855V12.6975L38.2002 11.55V15.855C37.8667 16.0019 37.5829 16.2423 37.3832 16.5471C37.1836 16.852 37.0766 17.2081 37.0752 17.5725C37.0754 17.8973 37.1607 18.2164 37.3225 18.498C37.4844 18.7796 37.7171 19.0139 37.9977 19.1775L36.8127 21.105C36.7605 21.1888 36.7254 21.282 36.7093 21.3793C36.6933 21.4766 36.6966 21.5762 36.7191 21.6722C36.7416 21.7683 36.7828 21.859 36.8404 21.939C36.8981 22.0191 36.9709 22.087 37.0549 22.1388C37.1388 22.1907 37.2321 22.2254 37.3295 22.2411C37.4269 22.2568 37.5265 22.2531 37.6224 22.2302C37.7184 22.2073 37.8089 22.1657 37.8887 22.1078C37.9686 22.0498 38.0362 21.9767 38.0877 21.8925L38.9502 20.4975L39.8127 21.8925C39.8632 21.977 39.9301 22.0505 40.0094 22.1088C40.0887 22.167 40.1788 22.2089 40.2745 22.232C40.3702 22.255 40.4695 22.2588 40.5666 22.243C40.6637 22.2272 40.7567 22.1922 40.8402 22.14C41.0099 22.0353 41.1312 21.8676 41.1776 21.6736C41.224 21.4797 41.1917 21.2752 41.0877 21.105ZM24.7002 15.6075L11.5152 10.065L24.7002 4.52254L37.8852 10.065L24.7002 15.6075Z" fill="#C49732"/>
</svg>
